<svg xmlns="http://www.w3.org/2000/svg" width="114.758" height="114.758" viewBox="0 0 114.758 114.758"><g transform="translate(-1166 -961)"><ellipse cx="57.379" cy="57.379" rx="57.379" ry="57.379" transform="translate(1166 961)" fill="#fff"/><g transform="translate(351 1044.258)"><path d="M84.1-23.208A42.1,42.1,0,0,1,42.051,18.843a2.531,2.531,0,0,1-2.531-2.531V-4.067a19.343,19.343,0,0,1-16.8-19.141,2.531,2.531,0,0,1,2.531-2.531h5.186V-41.733a2.531,2.531,0,0,1,2.531-2.531A2.531,2.531,0,0,1,35.5-41.733v15.994H48.6V-41.733a2.531,2.531,0,0,1,2.531-2.531,2.531,2.531,0,0,1,2.531,2.531v15.994h5.188a2.531,2.531,0,0,1,2.531,2.531,19.343,19.343,0,0,1-16.8,19.141V13.694a37.034,37.034,0,0,0,34.455-36.9A37.029,37.029,0,0,0,42.051-60.2,37.03,37.03,0,0,0,5.063-23.208a36.733,36.733,0,0,0,6.87,21.479A2.531,2.531,0,0,1,11.344,1.8a2.532,2.532,0,0,1-3.532-.587A41.79,41.79,0,0,1,0-23.208,42.1,42.1,0,0,1,42.051-65.259,42.1,42.1,0,0,1,84.1-23.208Z" transform="translate(830 -3)" fill="#17394c"/></g></g></svg>